<svg width="18" height="22" viewBox="0 0 18 22" fill="none" xmlns="http://www.w3.org/2000/svg">
<path fill-rule="evenodd" clip-rule="evenodd" d="M3 1C3 0.447715 3.44772 0 4 0C4.55228 0 5 0.447715 5 1V4.12602C6.72523 4.57006 8 6.13616 8 8C8 9.86384 6.72523 11.4299 5 11.874V21C5 21.5523 4.55228 22 4 22C3.44772 22 3 21.5523 3 21V11.874C1.27477 11.4299 0 9.86384 0 8C0 6.13616 1.27477 4.57006 3 4.12602V1ZM4 10C5.10457 10 6 9.10457 6 8C6 6.89543 5.10457 6 4 6C2.89543 6 2 6.89543 2 8C2 9.10457 2.89543 10 4 10Z" fill="white"/>
<path fill-rule="evenodd" clip-rule="evenodd" d="M13 21C13 21.5523 13.4477 22 14 22C14.5523 22 15 21.5523 15 21V17.874C16.7252 17.4299 18 15.8638 18 14C18 12.1362 16.7252 10.5701 15 10.126V1C15 0.447716 14.5523 0 14 0C13.4477 0 13 0.447716 13 1V10.126C11.2748 10.5701 10 12.1362 10 14C10 15.8638 11.2748 17.4299 13 17.874V21ZM14 12C15.1046 12 16 12.8954 16 14C16 15.1046 15.1046 16 14 16C12.8954 16 12 15.1046 12 14C12 12.8954 12.8954 12 14 12Z" fill="white"/>
</svg>
