<?xml version="1.0" encoding="utf-8"?>
<!-- Generator: Adobe Illustrator 19.2.1, SVG Export Plug-In . SVG Version: 6.00 Build 0)  -->
<svg version="1.1" id="Слой_1" xmlns="http://www.w3.org/2000/svg" xmlns:xlink="http://www.w3.org/1999/xlink" x="0px" y="0px"
	 viewBox="0 0 18 18" style="enable-background:new 0 0 18 18;" xml:space="preserve">
<style type="text/css">
	.st0{fill:#4C4C4C;stroke:#4C4C4C;stroke-width:0.2;}
</style>
<path class="st0" d="M12.2,15.5c-0.8,0-1.1,0-3.2,0c-2.1,0-2.4,0-3.2,0c-0.8,0-1.2-0.2-1.5-0.3L12.2,15.5z M12.2,2.6L12.2,2.6
	c0.8,0,1.2,0.2,1.5,0.3l0,0C14,3,14.3,3.2,14.6,3.4C14.8,3.7,15,4,15.1,4.3v0c0.1,0.3,0.2,0.7,0.3,1.5v0c0,0.8,0,1.1,0,3.2
	c0,2.1,0,2.4,0,3.2l0,0c0,0.8-0.2,1.2-0.3,1.5l0,0c-0.1,0.4-0.3,0.6-0.6,0.9c-0.3,0.3-0.5,0.4-0.9,0.6l0,0c-0.3,0.1-0.7,0.2-1.5,0.3
	l0,0c-0.8,0-1.1,0-3.2,0c-2.1,0-2.4,0-3.2,0h0c-0.8,0-1.2-0.2-1.5-0.3l0,0C4,15,3.7,14.8,3.4,14.6C3.2,14.3,3,14,2.9,13.7l0,0
	c-0.1-0.3-0.2-0.7-0.3-1.5l0,0c0-0.8,0-1.1,0-3.2c0-2.1,0-2.4,0-3.2v0c0-0.8,0.2-1.2,0.3-1.5l0,0C3,4,3.2,3.7,3.4,3.4
	C3.7,3.2,4,3,4.3,2.9l0,0C4.6,2.8,5,2.6,5.8,2.6l0,0c0.8,0,1.1,0,3.2,0C11.1,2.5,11.4,2.6,12.2,2.6z M5.7,0.9L5.7,0.9
	c-0.9,0-1.5,0.2-2,0.4c-0.5,0.2-1,0.5-1.5,0.9C1.8,2.7,1.5,3.2,1.3,3.7l0,0C1.1,4.2,1,4.8,0.9,5.7c0,0.9,0,1.1,0,3.3
	c0,2.2,0,2.4,0,3.3l0,0c0,0.9,0.2,1.5,0.4,2h0c0.2,0.5,0.5,1,0.9,1.5c0.5,0.5,0.9,0.7,1.4,0.9l0,0c0.5,0.2,1.1,0.3,2,0.4
	c0.9,0,1.1,0,3.3,0c2.2,0,2.4,0,3.3,0l0,0c0.9,0,1.5-0.2,2-0.4h0c0.5-0.2,1-0.5,1.5-0.9c0.5-0.5,0.7-0.9,0.9-1.5l0,0
	c0.2-0.5,0.3-1.1,0.4-2c0-0.9,0-1.1,0-3.3c0-2.2,0-2.4,0-3.3c0-0.9-0.2-1.5-0.4-2v0c-0.2-0.5-0.5-1-0.9-1.5
	c-0.5-0.5-0.9-0.7-1.4-0.9l0,0c-0.5-0.2-1.1-0.3-2-0.4l0,0c-0.9,0-1.1,0-3.3,0C6.8,0.9,6.6,0.9,5.7,0.9z M9,4.8
	C6.7,4.8,4.8,6.7,4.8,9c0,2.3,1.9,4.2,4.2,4.2c2.3,0,4.2-1.9,4.2-4.2C13.2,6.7,11.3,4.8,9,4.8z M9,11.6c-1.4,0-2.6-1.1-2.6-2.6
	c0-1.4,1.1-2.6,2.6-2.6c1.4,0,2.6,1.1,2.6,2.6C11.6,10.4,10.4,11.6,9,11.6z M13.3,5.8c0.6,0,1.1-0.5,1.1-1.1s-0.5-1.1-1.1-1.1
	c-0.6,0-1.1,0.5-1.1,1.1S12.7,5.8,13.3,5.8z"/>
</svg>
