<svg width="12" height="12" viewBox="0 0 12 12" fill="none" xmlns="http://www.w3.org/2000/svg">
<path d="M11.1594 5.21327V12H0V0.827299H6.73866V2.29839H1.47058V10.5289H9.69028V5.21327H11.1594Z" fill="white"/>
<path d="M7.57928 0V1.47109H9.47425L5.62004 5.38219C5.55065 5.4526 5.49561 5.5362 5.45806 5.6282C5.42051 5.7202 5.40118 5.8188 5.40118 5.91838C5.40118 6.01796 5.42052 6.11657 5.45807 6.20857C5.49563 6.30057 5.55068 6.38416 5.62007 6.45457C5.7602 6.59675 5.95025 6.67663 6.14842 6.67662C6.34658 6.67661 6.53663 6.59672 6.67675 6.45453L10.5309 2.5434V4.38597H12V0H7.57928Z" fill="white"/>
</svg>
