<svg width="21" height="44" viewBox="0 0 21 44" fill="none" xmlns="http://www.w3.org/2000/svg">
<path fill-rule="evenodd" clip-rule="evenodd" d="M10.2838 9.95673C10.7205 9.95673 11.0749 10.3103 11.0749 10.7478V15.494C11.0749 15.9315 10.7205 16.2851 10.2838 16.2851C9.84716 16.2851 9.49277 15.9315 9.49277 15.494V10.7478C9.49277 10.3103 9.84716 9.95673 10.2838 9.95673ZM11.0749 41.2818L13.6853 38.6713C13.8435 38.5131 14.0017 38.434 14.239 38.434C14.4764 38.434 14.6346 38.5131 14.7928 38.6713C15.1092 38.9885 15.1092 39.4624 14.7928 39.7796L10.8376 43.7348C10.6793 43.893 10.4816 43.9713 10.2838 43.9713C10.0861 43.9713 9.8883 43.893 9.73009 43.7348L5.77486 39.7796C5.45845 39.4624 5.45845 38.9885 5.77486 38.6713C5.93307 38.5131 6.09128 38.434 6.3286 38.434C6.56591 38.434 6.72412 38.5131 6.88233 38.6713L9.49277 41.2818V30.5236C9.49277 30.0497 9.80919 29.7325 10.2838 29.7325C10.7584 29.7325 11.0749 30.0497 11.0749 30.5236V41.2818ZM7.39152 33.9886C7.79496 34.1381 8.00616 34.5882 7.86773 34.9908C7.72613 35.3982 7.27366 35.6205 6.86152 35.4805C5.96369 35.1633 3.86505 34.286 2.17458 32.1249C0.120239 29.4962 0.00158209 26.6754 0 25.7775V10.7477C0.00158209 9.96693 0.0957165 6.60024 2.7299 3.75486C5.70185 0.546379 9.62306 0.466484 10.2836 0.464111C10.9386 0.464111 14.8827 0.53135 17.8578 3.75486C20.4865 6.60262 20.568 9.97089 20.5672 10.7477V25.7775C20.5711 26.6627 20.4667 29.3111 18.5927 31.8694C16.8421 34.2591 14.5631 35.1807 13.7072 35.4797C13.2975 35.6213 12.8434 35.4022 12.7002 34.9924C12.5578 34.5819 12.7785 34.1278 13.1883 33.9846C13.9461 33.7117 15.7418 32.9484 17.176 31.0799C18.8656 28.88 18.9795 26.5472 18.9851 25.7775V10.7477C18.9851 10.1156 18.9178 7.1872 16.6032 4.74841C14.0909 2.10157 10.8421 2.0462 10.2836 2.0462C9.7433 2.04778 6.27457 2.11898 3.74085 4.99284C1.4579 7.58193 1.55045 10.614 1.58209 11.2318V25.7775C1.59 26.5512 1.71261 28.8128 3.33425 30.9818C4.78978 32.9294 6.6424 33.7165 7.39152 33.9886Z" fill="#A6A6A6"/>
</svg>
