<?xml version="1.0" encoding="utf-8"?>
<!-- Generator: Adobe Illustrator 19.2.1, SVG Export Plug-In . SVG Version: 6.00 Build 0)  -->
<svg version="1.1" id="Слой_1" xmlns="http://www.w3.org/2000/svg" xmlns:xlink="http://www.w3.org/1999/xlink" x="0px" y="0px"
	 viewBox="0 0 79.8 33.2" style="enable-background:new 0 0 79.8 33.2;" xml:space="preserve">
<style type="text/css">
	.st0{fill:#F6F6F6;}
</style>
<title>bg-svg</title>
<polygon class="st0" points="74.2,28.7 73.4,29.1 75.6,31.2 76.3,30.8 "/>
<polygon class="st0" points="23,24 20.9,25.2 27.2,31.2 29.3,29.9 "/>
<polygon class="st0" points="71.4,0.7 69.2,2 75.5,7.9 77.7,6.7 "/>
<polygon class="st0" points="23.9,0.7 21.8,2 28.1,7.9 30.2,6.7 "/>
<polygon class="st0" points="54.8,25.7 52.7,26.9 59,32.9 61.1,31.6 "/>
<polygon class="st0" points="99.8,41.9 99,42.3 101.2,44.4 101.9,44 "/>
<polygon class="st0" points="47.3,37.2 46.5,37.7 49.1,40.2 50,39.7 "/>
<polygon class="st0" points="97,13.9 94.8,15.2 101.1,21.1 103.3,19.9 "/>
<polygon class="st0" points="48.7,13.9 47.4,14.7 51.4,18.4 52.7,17.7 "/>
<polygon class="st0" points="80.4,38.9 78.3,40.1 84.6,46.1 86.7,44.8 "/>
<polygon class="st0" points="65.8,17.9 65,18.3 67.2,20.4 67.9,20 "/>
</svg>
