<?xml version="1.0" encoding="utf-8"?>
<!-- Generator: Adobe Illustrator 19.2.1, SVG Export Plug-In . SVG Version: 6.00 Build 0)  -->
<svg version="1.1" id="Слой_1" xmlns="http://www.w3.org/2000/svg" xmlns:xlink="http://www.w3.org/1999/xlink" x="0px" y="0px"
	 viewBox="0 0 889.2 468" style="enable-background:new 0 0 889.2 468;" xml:space="preserve">
<style type="text/css">
	.st0{opacity:0.03;fill:#FFFFFF;enable-background:new    ;}
</style>
<title>bg-svg</title>
<path class="st0" d="M116.6,249c0.9-0.9,1.7-1.9,2.3-3.1c0.8-1.6,1-3.4,0.7-5.1c-0.4-3.1-2.2-5.9-5-7.5c-2.6-1.4-5.9-1.8-9.7-1.1
	c-3.2,0.5-6.1,2-8.2,4.4c-2,2.2-2.8,5.2-2.1,8.1v0.1l0.4,0.8l8.3-1.5l-0.2-0.9c-0.2-0.9,0-1.8,0.6-2.6c0.7-0.8,1.6-1.3,2.6-1.4
	c1-0.3,2.1-0.1,3,0.5c0.8,0.6,1.3,1.6,1.5,2.6c0.3,1.1,0.1,2.3-0.4,3.2c-0.7,0.9-1.7,1.5-2.9,1.6l-4.8,0.9l1.3,7l4.8-0.9
	c1.2-0.3,2.6-0.2,3.7,0.4c1,0.8,1.6,2,1.7,3.2c0.3,1.1,0.1,2.3-0.6,3.2c-0.7,0.9-1.8,1.5-3,1.7c-1.1,0.2-2.3,0.1-3.3-0.5
	c-0.9-0.5-1.5-1.5-1.6-2.5l-0.2-0.9l-8.3,1.5l-0.1,0.9v0.1c0.3,3.2,2.3,6,5.2,7.4c2.9,1.4,6.2,1.8,9.4,1.2c3.4-0.5,6.6-2.1,9-4.6
	c2.2-2.4,3.1-5.7,2.4-8.9C122.4,253,120,250.1,116.6,249"/>
<path class="st0" d="M88.6,447.7c-0.7,0-1.4,0-2.1,0.2c-0.2,0.1-0.4,0.1-0.7,0.2l0.7-3.5l5,0.3l0.3,1.5l3.7,0.3l0.4-6.1l-13.7-0.9
	l-2.3,13.2l4.9,0.6l0.2-0.4c0.2-0.4,0.4-0.8,0.8-1c0.5-0.2,1.1-0.3,1.7-0.3c0.7,0,1.4,0.4,1.8,1c0.4,0.9,0.6,1.8,0.5,2.8
	c0,0.9-0.3,1.8-0.8,2.5c-0.4,0.6-1.2,0.9-1.9,0.7c-0.7,0-1.3-0.3-1.8-0.8c-0.5-0.6-0.7-1.3-0.5-2v-0.6l-5.2-0.1l-0.2,0.5v0.2
	c-0.3,2,0.5,3.9,2,5.2c1.5,1.3,3.4,2.1,5.4,2.1c2.2,0.3,4.4-0.4,6.1-1.9c1.5-1.4,2.4-3.4,2.5-5.4c0.3-2.1-0.3-4.3-1.5-6
	C92.5,448.6,90.6,447.7,88.6,447.7"/>
<path class="st0" d="M377.5,319.1c-0.7,0.1-1.4,0.4-2,0.7c-0.2,0.1-0.4,0.2-0.6,0.4l-0.2-3.6l5-0.9l0.6,1.4l3.6-0.6l-1.1-6
	l-13.5,2.4l1,13.4l4.9-0.5l0.1-0.4c0.1-0.4,0.3-0.8,0.6-1.1c0.4-0.4,1-0.6,1.5-0.6c0.7-0.2,1.5,0,2,0.6c0.6,0.7,1,1.6,1.2,2.6
	c0.2,0.9,0.1,1.8-0.2,2.6c-0.3,0.7-0.9,1.1-1.7,1.2c-0.6,0.2-1.3,0-1.9-0.3c-0.6-0.4-0.9-1.1-1-1.8l-0.1-0.6l-5,1.2l-0.1,0.5v0.1
	c0.2,1.9,1.4,3.7,3.1,4.5c1.8,0.9,3.8,1.2,5.8,0.8c2.2-0.3,4.2-1.5,5.4-3.3c1.1-1.8,1.4-3.9,1-5.9c-0.3-2.1-1.3-4-2.9-5.4
	C381.5,319.1,379.4,318.6,377.5,319.1"/>
<rect x="372.2" y="450.1" transform="matrix(0.5723 -0.8201 0.8201 0.5723 -212.158 504.7014)" class="st0" width="11.2" height="11.2"/>
<path class="st0" d="M220.5,241.4l-0.9-4.8L212,238l4.7,26.7l7.6-1.4l-2.3-12.8c-0.8-4.5,2-8,7.6-8.5l-1.3-7.2
	C224.7,235.3,221.7,237.9,220.5,241.4"/>
<path class="st0" d="M337.5,201.9c-2,2.5-5.5,2.7-8.4,0.4s-3.4-5.7-1.4-8.2c1.2-1.7,3.2-2.6,5.2-2.6l0.3-5.5
	c-3.7-0.3-7.3,1.3-10.1,4.8c-4.5,5.6-3.7,12.3,1.8,16.8s12.2,3.6,16.6-1.8c3-3.7,3.8-7.7,2.5-11.3l-5.3,1.6
	C339.4,198,338.9,200.3,337.5,201.9"/>
<polygon class="st0" points="281.3,347.1 278,328.5 267.1,330.4 268.5,337.9 271.8,337.3 273.8,348.4 270.4,349 271.8,356.5 
	286,354 284.7,346.5 "/>
<rect x="268.9" y="317.2" transform="matrix(0.9846 -0.175 0.175 0.9846 -51.9184 52.6805)" class="st0" width="7.6" height="7"/>
<polygon class="st0" points="169.4,310.5 165.6,313.8 164.3,307.2 168.5,306.2 "/>
<rect x="162.5" y="296.5" transform="matrix(0.9782 -0.2077 0.2077 0.9782 -58.4632 40.7312)" class="st0" width="4.4" height="4.4"/>
<polygon class="st0" points="169.7,310.5 165.9,313.7 164.5,307.1 168.8,306.2 "/>
<rect x="162.7" y="296.5" transform="matrix(0.9782 -0.2077 0.2077 0.9782 -58.4492 40.7749)" class="st0" width="4.4" height="4.4"/>
<path class="st0" d="M243.5,167.3l-7,1.3l2.8,15.5l11-2c13.9-2.5,23.2-15.8,20.7-29.7c0,0,0,0,0,0l-6.4-36.2l-36.2,6.4l6.5,36.2
	l18-3.2C253.1,161.2,249.1,166.3,243.5,167.3"/>
<polygon class="st0" points="201.6,409.7 213.4,407.6 194.6,370.1 182.8,372.2 "/>
<path class="st0" d="M152.7,184c7.7,2.8,14.7-0.1,17.4-7.5s-0.7-14.2-8.4-17s-14.7,0.2-17.4,7.6S145,181.2,152.7,184 M159.6,165.1
	c3.6,1.3,5,4.9,3.6,8.8s-4.8,5.7-8.4,4.4c-3.6-1.3-5-4.9-3.6-8.8S156.1,163.8,159.6,165.1"/>
<path class="st0" d="M39.9,216.4c-3.9-6.8-5.3-14.7-4-22.4l8.2-1.4c-1.3,7.7,0.1,15.6,4,22.4L39.9,216.4z"/>
<polygon class="st0" points="233.2,63.8 228.7,60.6 233.1,54.4 226.8,50 230,45.5 240.8,53 "/>
<rect x="123" y="77.9" transform="matrix(0.9845 -0.1752 0.1752 0.9845 -13.0382 24.2964)" class="st0" width="16.3" height="16.3"/>
<path class="st0" d="M371.7,117.6c-2.8,0.4-5.2,2.2-6.4,4.7l-2.1-11.6l-6.3,1.1l5.4,30.5l6.3-1.2l-0.6-3.2c2,2,4.9,2.8,7.7,2.2
	c6.2-1.1,9.5-6.3,8.3-13S377.9,116.5,371.7,117.6 M373.3,135.2c-3.2,0.6-5.9-1.5-6.6-5.1s1.2-6.5,4.4-7.1s5.9,1.6,6.5,5.1
	S376.5,134.6,373.3,135.2"/>
<polygon class="st0" points="128.6,27.1 115.5,29.5 117.8,42.6 101.5,45.5 99.2,32.4 86.1,34.7 83.1,18.4 96.3,16 93.9,2.9 110.3,0 
	112.6,13.1 125.7,10.8 "/>
<polygon class="st0" points="329.2,12.9 335,11.9 334,6.2 341.1,4.9 342.1,10.7 347.9,9.6 349.2,16.8 343.4,17.8 344.4,23.6 
	337.3,24.8 336.3,19.1 330.5,20.1 "/>
<path class="st0" d="M7.2,108.7c2-2.5,5.5-2.7,8.4-0.4c2.9,2.4,3.4,5.7,1.4,8.2c-1.2,1.6-3.2,2.6-5.2,2.6l-0.3,5.5
	c3.7,0.3,7.3-1.3,10.1-4.8c4.4-5.5,3.7-12.3-1.8-16.8S7.5,99.5,3.1,105c-3,3.7-3.8,7.7-2.5,11.3l5.3-1.6
	C5.2,112.6,5.7,110.3,7.2,108.7"/>
<rect x="14.9" y="300.3" class="st0" width="40.8" height="40.8"/>
<path class="st0" d="M457.1,284.1c0.2-0.2,0.4-0.5,0.5-0.8c0.2-0.4,0.2-0.9,0.2-1.3c-0.1-0.8-0.5-1.4-1.2-1.8
	c-1.4-0.7-3.1-0.4-4.3,0.8c-0.5,0.6-0.6,1.4-0.5,2.1c0.1,0.5,0.3,0.9,0.6,1.2c0.2,0.2,0.5,0.4,0.8,0.5c-0.3,0.2-0.5,0.5-0.7,0.9
	c-0.2,0.4-0.3,1-0.2,1.4c0.1,0.8,0.6,1.5,1.3,1.9c1.5,0.7,3.3,0.4,4.5-0.8c0.5-0.6,0.7-1.4,0.5-2.2c-0.1-0.5-0.3-0.9-0.7-1.3
	C457.8,284.5,457.5,284.3,457.1,284.1 M454.2,282.1c0.1-0.2,0.3-0.3,0.5-0.3c0.2-0.1,0.5,0,0.6,0.1c0.2,0.2,0.3,0.4,0.4,0.7
	c0.1,0.3,0,0.5-0.1,0.8c-0.3,0.4-0.8,0.5-1.2,0.2c0,0,0,0,0,0c-0.2-0.2-0.3-0.4-0.4-0.7C454,282.5,454.1,282.3,454.2,282.1
	 M456.4,287.1c-0.3,0.4-1,0.6-1.5,0.3c-0.2-0.2-0.4-0.4-0.4-0.7c-0.1-0.3,0-0.6,0.1-0.8c0.2-0.2,0.4-0.4,0.7-0.4
	c0.3-0.1,0.6,0,0.8,0.2C456.6,285.9,456.7,286.6,456.4,287.1"/>
<path class="st0" d="M734.4,249c0.9-0.9,1.7-1.9,2.3-3.1c0.8-1.6,1-3.4,0.7-5.1c-0.4-3.1-2.2-5.9-5-7.5c-2.6-1.4-5.9-1.8-9.7-1.1
	c-3.2,0.5-6.1,2-8.2,4.4c-2,2.2-2.8,5.2-2.1,8.1v0.1l0.4,0.8l8.3-1.5l-0.2-0.9c-0.2-0.9,0-1.8,0.6-2.6c0.7-0.8,1.6-1.3,2.6-1.4
	c1-0.3,2.1-0.1,3,0.5c0.8,0.6,1.3,1.6,1.5,2.6c0.3,1.1,0.1,2.3-0.4,3.2c-0.7,0.9-1.7,1.5-2.9,1.6l-4.8,0.9l1.3,7l4.8-0.9
	c1.2-0.3,2.6-0.2,3.7,0.4c1,0.8,1.6,2,1.7,3.2c0.3,1.1,0.1,2.3-0.6,3.2c-0.7,0.9-1.8,1.5-3,1.7c-1.1,0.2-2.3,0.1-3.3-0.5
	c-0.9-0.5-1.5-1.5-1.6-2.5l-0.2-0.9l-8.3,1.5l-0.1,0.9v0.1c0.3,3.2,2.3,6,5.2,7.4c2.9,1.4,6.2,1.8,9.4,1.2c3.4-0.5,6.6-2.1,9-4.6
	c2.2-2.4,3.1-5.7,2.4-8.9C740.2,252.9,737.7,250.1,734.4,249"/>
<path class="st0" d="M706.3,447.7c-0.7,0-1.4,0-2.1,0.2c-0.2,0.1-0.4,0.1-0.7,0.2l0.7-3.5l5,0.3l0.3,1.5l3.7,0.3l0.4-6.1l-13.7-0.9
	l-2.3,13.2l4.9,0.6l0.1-0.4c0.2-0.4,0.4-0.8,0.8-1c0.5-0.2,1.1-0.3,1.7-0.3c0.7,0,1.4,0.4,1.8,1c0.4,0.9,0.6,1.8,0.5,2.8
	c0,0.9-0.3,1.8-0.8,2.5c-0.4,0.6-1.2,0.9-1.9,0.7c-0.7,0-1.3-0.3-1.8-0.8c-0.5-0.6-0.7-1.3-0.5-2v-0.6l-5.2-0.1l-0.2,0.5v0.2
	c-0.3,2,0.5,3.9,2,5.2c1.5,1.3,3.4,2.1,5.4,2.1c2.2,0.3,4.4-0.4,6.1-1.9c1.5-1.5,2.4-3.4,2.4-5.5c0.3-2.1-0.3-4.3-1.5-6
	C710.2,448.5,708.3,447.6,706.3,447.7"/>
<polygon class="st0" points="501.7,322.7 506.3,325.9 501.9,332.1 508.1,336.5 505,341 494.2,333.5 "/>
<polygon class="st0" points="612.5,422.9 614.9,422.4 614.5,420 617.5,419.5 618,421.9 620.4,421.5 621,424.5 618.5,424.9 
	619,427.4 615.9,427.9 615.5,425.5 613,425.9 "/>
<path class="st0" d="M467.3,417.8c-6.1,1.1-10.6,4.5-13,9.5l-4.2-23.7l-12.9,2.3l11,62l12.9-2.3l-1.1-6.5c4.1,3.9,9.4,5.6,15.7,4.5
	c12.6-2.3,19.3-12.8,16.9-26.5C490.1,423.3,479.9,415.5,467.3,417.8 M470.5,453.5c-6.6,1.2-12.1-3-13.4-10.5
	c-1.3-7.3,2.4-13.2,9-14.4s12,3.2,13.3,10.4C480.7,446.4,477.1,452.3,470.5,453.5"/>
<path class="st0" d="M838.3,241.4l-0.9-4.8l-7.6,1.4l4.7,26.7l7.6-1.4l-2.3-12.8c-0.8-4.5,2-8,7.6-8.5l-1.3-7.2
	C842.5,235.3,839.5,237.9,838.3,241.4"/>
<polygon class="st0" points="787.2,310.5 783.4,313.8 782,307.2 786.3,306.2 "/>
<rect x="780.3" y="296.5" transform="matrix(0.9782 -0.2077 0.2077 0.9782 -44.988 169.0702)" class="st0" width="4.4" height="4.4"/>
<polygon class="st0" points="787.5,310.5 783.7,313.7 782.3,307.1 786.5,306.2 "/>
<rect x="780.5" y="296.5" transform="matrix(0.9782 -0.2077 0.2077 0.9782 -44.9741 169.1138)" class="st0" width="4.4" height="4.4"/>
<path class="st0" d="M861.3,167.3l-7,1.3L857,184l11-2c13.9-2.5,23.2-15.8,20.7-29.7c0,0,0,0,0,0l-6.5-36.2l-36.2,6.4l6.5,36.2
	l18-3.2C870.9,161.2,866.9,166.3,861.3,167.3"/>
<polygon class="st0" points="819.4,409.7 831.2,407.6 812.4,370.1 800.6,372.2 "/>
<path class="st0" d="M770.5,184c7.7,2.8,14.7-0.1,17.4-7.5s-0.7-14.2-8.4-17s-14.7,0.2-17.3,7.6S762.8,181.2,770.5,184 M777.4,165.1
	c3.6,1.3,5,4.9,3.6,8.8s-4.8,5.7-8.4,4.4s-5-4.9-3.6-8.8S773.9,163.8,777.4,165.1"/>
<path class="st0" d="M657.7,216.4c-3.9-6.8-5.3-14.7-4-22.4l8.2-1.4c-1.3,7.7,0.1,15.6,4,22.4L657.7,216.4z"/>
<polygon class="st0" points="851,63.8 846.5,60.6 850.9,54.4 844.6,50 847.8,45.5 858.5,53 "/>
<rect x="740.7" y="77.8" transform="matrix(0.9845 -0.1752 0.1752 0.9845 -3.4764 132.5251)" class="st0" width="16.3" height="16.3"/>
<polygon class="st0" points="746.4,27.1 733.3,29.5 735.6,42.6 719.3,45.5 717,32.4 703.8,34.7 700.9,18.4 714.1,16 711.7,2.9 
	728,0 730.4,13.1 743.5,10.8 "/>
<path class="st0" d="M433.4,146.2l1.6-0.3l-1,1.5c-0.4,0.6-0.8,1.3-1.1,2c-0.2,0.5-0.3,1.1-0.2,1.6c0.1,0.7,0.5,1.4,1.2,1.8
	c0.7,0.4,1.5,0.5,2.3,0.3c0.8-0.1,1.6-0.6,2.1-1.3c0.5-0.6,0.6-1.5,0.4-2.2l0,0l-0.1-0.3l-2,0.4v0.2c0.1,0.3,0,0.7-0.1,1
	c-0.1,0.2-0.4,0.4-0.7,0.4c-0.2,0.1-0.5,0-0.7-0.1c-0.2-0.2-0.3-0.4-0.4-0.7c0-0.3,0-0.6,0.1-0.8c0.2-0.4,0.4-0.8,0.6-1.2l2.3-3.5
	l-0.3-1.4l-6.2,1.1l0.5,2.6l1.7-0.3L433.4,146.2z"/>
<rect x="571.6" y="38.4" transform="matrix(0.5723 -0.8201 0.8201 0.5723 210.756 492.1595)" class="st0" width="11.2" height="11.2"/>
<path class="st0" d="M624.9,108.7c2-2.5,5.5-2.7,8.4-0.4c2.9,2.4,3.4,5.7,1.4,8.2c-1.2,1.7-3.2,2.6-5.2,2.6l-0.3,5.5
	c3.7,0.3,7.3-1.3,10.1-4.8c4.5-5.6,3.7-12.3-1.8-16.8s-12.2-3.7-16.6,1.8c-3,3.7-3.8,7.7-2.5,11.3l5.3-1.6
	C623,112.6,623.5,110.3,624.9,108.7"/>
<polygon class="st0" points="431.6,17.6 435,36.2 445.8,34.3 444.5,26.8 441.1,27.4 439.1,16.3 442.5,15.7 441.2,8.2 426.9,10.7 
	428.3,18.2 "/>
<rect x="436.4" y="40.6" transform="matrix(0.9846 -0.175 0.175 0.9846 -0.9201 77.724)" class="st0" width="7.6" height="6.9"/>
<path class="st0" d="M456.8,226.7l3.3-0.6l-1.3-7.3l-5.2,0.9c-6.5,1.1-10.9,7.4-9.8,13.9c0,0,0,0,0,0.1l3,17l17-3l-3-17l-8.4,1.5
	C452.3,229.5,454.2,227.1,456.8,226.7"/>
<polygon class="st0" points="517.2,99.3 505.4,101.4 524.2,138.8 536,136.7 "/>
<polygon class="st0" points="581,250.5 575.3,251.5 576.3,257.3 569.1,258.5 568.1,252.8 562.3,253.8 561.1,246.6 566.8,245.6 
	565.8,239.9 573,238.6 574,244.3 579.7,243.3 "/>
<rect x="632.7" y="300.3" class="st0" width="40.8" height="40.8"/>
</svg>
