<svg id="3811a9b8-8d90-4b78-8047-6f75d101d9aa" data-name="Слой 1" xmlns="http://www.w3.org/2000/svg" width="194.41" height="30" viewBox="0 0 194.41 30">
  <defs>
    <style>
      .\38 16befb7-6fa8-4797-8984-c59647abc0f0 {
        fill: #ff465a;
      }
    </style>
  </defs>
  <path class="816befb7-6fa8-4797-8984-c59647abc0f0" d="M5-107.11a5.34,5.34,0,0,0-3.9-1.55,6.09,6.09,0,0,0-6,6.29,6.07,6.07,0,0,0,6,6.24A5.34,5.34,0,0,0,5-97.67l0.33,1.31h2.3v-12.07H5.38ZM1.43-98.75a3.62,3.62,0,0,1-3.62-3.62A3.62,3.62,0,0,1,1.43-106,3.62,3.62,0,0,1,5-102.37,3.65,3.65,0,0,1,1.43-98.75Z" transform="translate(4.86 114.44)"/>
  <path class="816befb7-6fa8-4797-8984-c59647abc0f0" d="M187.25-102.37l-0.33,1.31a5.34,5.34,0,0,0-3.9-1.55,6.06,6.06,0,0,0-6,6.29,6,6,0,0,0,6,6.24,5.34,5.34,0,0,0,3.9-1.55l0.33,1.31h2.3v-12.07h-2.3Zm-4,9.62a3.62,3.62,0,0,1-3.61-3.61,3.62,3.62,0,0,1,3.61-3.61,3.62,3.62,0,0,1,3.62,3.61A3.56,3.56,0,0,1,183.26-92.75Z" transform="translate(4.86 114.44)"/>
  <path class="816befb7-6fa8-4797-8984-c59647abc0f0" d="M31.06-102.65a5.34,5.34,0,0,0-3.9,1.55l-0.33-1.31h-2.3v17.93h2.63v-7.14a5.34,5.34,0,0,0,3.9,1.55,6,6,0,0,0,6-6.24A6,6,0,0,0,31.06-102.65Zm-0.23,9.91a3.62,3.62,0,0,1-3.62-3.61A3.62,3.62,0,0,1,30.82-100a3.65,3.65,0,0,1,3.61,3.61A3.56,3.56,0,0,1,30.82-92.75Z" transform="translate(4.86 114.44)"/>
  <path class="816befb7-6fa8-4797-8984-c59647abc0f0" d="M121.85-102.65a5.34,5.34,0,0,0-3.9,1.55l-0.33-1.31h-2.3v17.93H118v-7.14a5.34,5.34,0,0,0,3.9,1.55,6,6,0,0,0,6-6.24A6.07,6.07,0,0,0,121.85-102.65Zm-0.24,9.91A3.62,3.62,0,0,1,118-96.36a3.62,3.62,0,0,1,3.61-3.61,3.65,3.65,0,0,1,3.61,3.61A3.62,3.62,0,0,1,121.62-92.75Z" transform="translate(4.86 114.44)"/>
  <path class="816befb7-6fa8-4797-8984-c59647abc0f0" d="M91.34-102.65a5.34,5.34,0,0,0-3.9,1.55l-0.33-1.31h-2l-0.33,1.31a5.34,5.34,0,0,0-3.9-1.55,6.06,6.06,0,0,0-6,6.29,6,6,0,0,0,6,6.24,5.34,5.34,0,0,0,3.9-1.55v7.18h2.63v-7.14a5.34,5.34,0,0,0,3.9,1.55,6,6,0,0,0,6-6.24A6.07,6.07,0,0,0,91.34-102.65ZM81.2-92.75a3.62,3.62,0,0,1-3.61-3.61A3.62,3.62,0,0,1,81.2-100a3.62,3.62,0,0,1,3.62,3.61A3.59,3.59,0,0,1,81.2-92.75Zm9.91,0a3.62,3.62,0,0,1-3.62-3.61A3.62,3.62,0,0,1,91.1-100a3.62,3.62,0,0,1,3.62,3.61A3.59,3.59,0,0,1,91.1-92.75Z" transform="translate(4.86 114.44)"/>
  <path class="816befb7-6fa8-4797-8984-c59647abc0f0" d="M61.57-114.44H50.68V-112h4.13v9.62h2.63V-112h4.13v-2.44Z" transform="translate(4.86 114.44)"/>
  <path class="816befb7-6fa8-4797-8984-c59647abc0f0" d="M11.52-103.34l-1.31,2.28,10.45,6L22-97.31Z" transform="translate(4.86 114.44)"/>
  <path class="816befb7-6fa8-4797-8984-c59647abc0f0" d="M62.87-108.13l-1.31,2.28,10.45,6,1.31-2.28Z" transform="translate(4.86 114.44)"/>
  <path class="816befb7-6fa8-4797-8984-c59647abc0f0" d="M49.4-108.14L39-102.1l1.31,2.28,10.45-6Z" transform="translate(4.86 114.44)"/>
  <path class="816befb7-6fa8-4797-8984-c59647abc0f0" d="M106.27-102.65A6.29,6.29,0,0,0,100-96.36a6.25,6.25,0,0,0,6.29,6.24,6.28,6.28,0,0,0,6.29-6.24A6.35,6.35,0,0,0,106.27-102.65Zm0,9.91a3.62,3.62,0,0,1-3.61-3.61,3.62,3.62,0,0,1,3.61-3.61,3.62,3.62,0,0,1,3.61,3.61A3.62,3.62,0,0,1,106.27-92.75Z" transform="translate(4.86 114.44)"/>
  <path class="816befb7-6fa8-4797-8984-c59647abc0f0" d="M138.1-95.33l-4.79-7H131v12h2.63v-7.37l3.71,5.45h1.55l3.66-5.45v7.37h2.63v-12h-2.3Z" transform="translate(4.86 114.44)"/>
  <path class="816befb7-6fa8-4797-8984-c59647abc0f0" d="M166.64-102.37l-4.55,12H165l3.47-9.58,3.43,9.58h3l-4.6-12h-3.62Z" transform="translate(4.86 114.44)"/>
  <path class="816befb7-6fa8-4797-8984-c59647abc0f0" d="M154.67-92.46l-3.76-9.91H148l4.55,12h1.31l-2.25,5.92h3l6.81-17.93h-3Z" transform="translate(4.86 114.44)"/>
</svg>
